<svg width="22" height="22" viewBox="0 0 22 22" fill="none" xmlns="http://www.w3.org/2000/svg">
<path d="M14.9286 10.2143C14.9286 11.2562 14.5147 12.2554 13.778 12.9922C13.0412 13.7289 12.042 14.1428 11 14.1428C9.95812 14.1428 8.95887 13.7289 8.22212 12.9922C7.48537 12.2554 7.07147 11.2562 7.07147 10.2143V4.71428C7.07147 3.67235 7.48537 2.67311 8.22212 1.93636C8.95887 1.19961 9.95812 0.785706 11 0.785706C12.042 0.785706 13.0412 1.19961 13.778 1.93636C14.5147 2.67311 14.9286 3.67235 14.9286 4.71428V10.2143Z" stroke="#2C2C2C" stroke-width="1.57143" stroke-linecap="round" stroke-linejoin="round"/>
<path d="M18.8572 11C18.8593 11.9292 18.6778 12.8497 18.3231 13.7086C17.9685 14.5674 17.4477 15.3478 16.7906 16.0049C16.1336 16.6619 15.3532 17.1827 14.4943 17.5374C13.6354 17.892 12.715 18.0735 11.7858 18.0714H10.2143C9.28511 18.0735 8.36464 17.892 7.50576 17.5374C6.64688 17.1827 5.86651 16.6619 5.20945 16.0049C4.5524 15.3478 4.0316 14.5674 3.67696 13.7086C3.32232 12.8497 3.14083 11.9292 3.1429 11V11" stroke="#2C2C2C" stroke-width="1.57143" stroke-linecap="round" stroke-linejoin="round"/>
<path d="M11 18.0714V21.2143" stroke="#2C2C2C" stroke-width="1.57143" stroke-linecap="round" stroke-linejoin="round"/>
</svg>
