<svg preserveAspectRatio="none" width="100%" height="100%" overflow="visible" style="display: block;" viewBox="0 0 20.0083 20.0084" fill="none" xmlns="http://www.w3.org/2000/svg">
<g id="Group">
<path id="Vector" d="M10.7143 12.8654L6.42857 13.6369L7.14286 9.294L15.3286 1.13685C15.4614 1.00296 15.6194 0.896679 15.7935 0.824153C15.9675 0.751626 16.1543 0.714286 16.3429 0.714286C16.5314 0.714286 16.7182 0.751626 16.8923 0.824153C17.0663 0.896679 17.2243 1.00296 17.3571 1.13685L18.8714 2.65114C19.0053 2.78394 19.1116 2.94195 19.1841 3.11603C19.2567 3.29012 19.294 3.47684 19.294 3.66543C19.294 3.85401 19.2567 4.04074 19.1841 4.21482C19.1116 4.38891 19.0053 4.54691 18.8714 4.67971L10.7143 12.8654Z" stroke="var(--stroke-0, white)" stroke-width="1.42857" stroke-linecap="round" stroke-linejoin="round"/>
<path id="Vector_2" d="M17.1429 13.5798V17.8655C17.1429 18.2444 16.9923 18.6078 16.7244 18.8757C16.4565 19.1436 16.0932 19.2941 15.7143 19.2941H2.14286C1.76398 19.2941 1.40061 19.1436 1.1327 18.8757C0.864796 18.6078 0.714286 18.2444 0.714286 17.8655V4.29408C0.714286 3.9152 0.864796 3.55184 1.1327 3.28393C1.40061 3.01602 1.76398 2.86551 2.14286 2.86551H6.42857" stroke="var(--stroke-0, white)" stroke-width="1.42857" stroke-linecap="round" stroke-linejoin="round"/>
</g>
</svg>
