<svg width="30" height="30" viewBox="0 0 30 30" fill="none" xmlns="http://www.w3.org/2000/svg">
<g clip-path="url(#clip0_814_1065)">
<path d="M25.7143 16.0715V11.7857C25.7143 11.2174 25.4885 10.6724 25.0867 10.2705C24.6848 9.86865 24.1398 9.64288 23.5714 9.64288H3.2143C2.64598 9.64288 2.10093 9.86865 1.69907 10.2705C1.29721 10.6724 1.07144 11.2174 1.07144 11.7857V26.7857C1.07144 27.3541 1.29721 27.8991 1.69907 28.301C2.10093 28.7028 2.64598 28.9286 3.2143 28.9286H23.5714C24.1398 28.9286 24.6848 28.7028 25.0867 28.301C25.4885 27.8991 25.7143 27.3541 25.7143 26.7857V21.4286" stroke="white" stroke-width="2.14286" stroke-linecap="round" stroke-linejoin="round"/>
<path d="M8.22864 4.28573L20.3786 1.1143C20.5152 1.07583 20.6581 1.06543 20.7987 1.08371C20.9394 1.10199 21.0749 1.14859 21.1971 1.22068C21.3192 1.29278 21.4255 1.38887 21.5095 1.50318C21.5935 1.61748 21.6535 1.74761 21.6858 1.88573L22.2858 4.28573" stroke="white" stroke-width="2.14286" stroke-linecap="round" stroke-linejoin="round"/>
<path d="M27.8572 16.0714H22.5C21.9083 16.0714 21.4286 16.5511 21.4286 17.1428V20.3571C21.4286 20.9489 21.9083 21.4286 22.5 21.4286H27.8572C28.4489 21.4286 28.9286 20.9489 28.9286 20.3571V17.1428C28.9286 16.5511 28.4489 16.0714 27.8572 16.0714Z" stroke="white" stroke-width="2.14286" stroke-linecap="round" stroke-linejoin="round"/>
</g>
<defs>
<clipPath id="clip0_814_1065">
<rect width="30" height="30" fill="white"/>
</clipPath>
</defs>
</svg>
