<svg width="72" height="62" viewBox="0 0 72 62" fill="none" xmlns="http://www.w3.org/2000/svg">
<g clip-path="url(#clip0_954_342)">
<path d="M60.9737 2.05713H38.6923V59.6571H60.9737V2.05713Z" fill="#248341"/>
<path d="M32.3486 2.05713H16.4315V59.6571H32.3486V2.05713Z" fill="#A6CE39"/>
<path d="M11.6435 2.05713H0.501465V59.6571H11.6435V2.05713Z" fill="#FFCB05"/>
<path d="M68.0143 5.47455H68.5645C68.4683 5.80711 68.3133 6.11976 68.1068 6.39769C67.8343 6.58283 67.5617 6.76798 67.1965 6.76798C66.7559 6.77129 66.3308 6.60565 66.0085 6.30512C65.7107 5.94119 65.5497 5.4845 65.5534 5.01426C65.5534 4.45884 65.736 4.08855 66.0111 3.72084C66.2837 3.35055 66.7388 3.25798 67.194 3.25798C67.5617 3.25798 67.8343 3.35055 68.1068 3.53569C68.382 3.72084 68.5645 3.99855 68.5645 4.36626H68.1068C68.1068 4.18112 67.9268 3.99855 67.8343 3.90341C67.6517 3.81341 67.4691 3.72084 67.2865 3.72084C66.9214 3.72084 66.6488 3.81341 66.4637 4.09112C66.2837 4.27369 66.1911 4.64398 66.1911 5.01426C66.1911 5.38198 66.2837 5.65712 66.4663 5.93484C66.6463 6.21255 66.9214 6.30512 67.2891 6.30512C67.5617 6.30512 67.7443 6.21255 67.8343 6.11998C67.9268 5.84484 68.0143 5.65712 68.0143 5.47455ZM64.7331 4.92169C64.7331 5.56455 64.9131 6.11998 65.3708 6.58284C65.5848 6.79876 65.8414 6.96769 66.1243 7.07882C66.4073 7.18995 66.7103 7.24085 67.014 7.22826C67.3173 7.24049 67.6198 7.18942 67.9022 7.07829C68.1847 6.96717 68.4409 6.79843 68.6545 6.58284C68.8693 6.36451 69.0369 6.10443 69.147 5.8187C69.2572 5.53296 69.3075 5.22766 69.2948 4.92169C69.3078 4.6153 69.2577 4.30951 69.1476 4.0233C69.0374 3.7371 68.8696 3.4766 68.6545 3.25798C68.4407 3.04284 68.1844 2.87458 67.9019 2.76391C67.6195 2.65323 67.3171 2.60256 67.014 2.61512C66.7105 2.6022 66.4076 2.65269 66.1247 2.76338C65.8417 2.87407 65.585 3.04252 65.3708 3.25798C65.0057 3.72084 64.7331 4.27369 64.7331 4.92169ZM67.014 7.78112C66.1911 7.78112 65.5534 7.50598 65.0083 6.95055C64.7382 6.68714 64.5257 6.37064 64.3841 6.02101C64.2425 5.67138 64.1748 5.2962 64.1854 4.91912C64.1854 4.09112 64.458 3.44312 65.0083 2.88769C65.5534 2.33484 66.1911 2.05969 67.014 2.05969C67.7443 2.05969 68.472 2.33484 69.0197 2.89026C69.5674 3.44312 69.8425 4.09112 69.8425 4.92169C69.8425 5.75226 69.5674 6.39769 69.0197 6.95312C68.7621 7.22401 68.4504 7.43772 68.1049 7.58036C67.7593 7.72301 67.3877 7.79141 67.014 7.78112Z" fill="#248341"/>
</g>
<defs>
<clipPath id="clip0_954_342">
<rect width="72" height="61.7143" fill="white"/>
</clipPath>
</defs>
</svg>
