<svg width="40" height="40" viewBox="0 0 40 40" fill="none" xmlns="http://www.w3.org/2000/svg">
<g clip-path="url(#clip0_822_2115)">
<path d="M39.1579 0H0V39.1579H39.1579V0Z" fill="white"/>
<path d="M6.52612 14.6843V10.5599C6.52612 10.0533 6.64407 9.55363 6.87063 9.10053L8.1577 6.52637H16.3156L17.9472 9.78952H34.263C35.1641 9.78952 35.8945 10.52 35.8945 11.4211V14.6843V29.3685C35.8945 31.1707 34.4336 32.6316 32.6314 32.6316H29.3682" stroke="#ABABAB" stroke-width="1.63158" stroke-linecap="round" stroke-linejoin="round"/>
<path d="M28.1223 14.6843H3.76775C2.69194 14.6843 1.91059 15.7073 2.19367 16.7452L5.87055 30.2271C6.25774 31.6469 7.54721 32.6317 9.01873 32.6317H32.1271C33.2028 32.6317 33.9842 31.6087 33.7011 30.5708L29.6964 15.8866C29.5027 15.1768 28.8581 14.6843 28.1223 14.6843Z" stroke="#ABABAB" stroke-width="1.63158"/>
</g>
<defs>
<clipPath id="clip0_822_2115">
<rect width="39.1579" height="39.1579" fill="white"/>
</clipPath>
</defs>
</svg>
