<svg width="72" height="72" viewBox="0 0 72 72" fill="none" xmlns="http://www.w3.org/2000/svg">
<path fill-rule="evenodd" clip-rule="evenodd" d="M34.1401 19.4572C51.542 19.5435 70.9376 31.8079 70.9297 38.2476C70.9174 47.6159 60.2267 48.2062 35.8397 47.1232C14.6716 46.183 10.7131 48.5726 10.6122 55.1957C10.52 61.2588 25.2461 67.7366 44.7374 67.4598C39.4303 68.8916 33.8991 69.3141 28.3111 68.0795C18.6798 65.9521 7.89426 59.4292 7.81283 54.1419C7.64099 42.9432 26.2637 41.7781 36.0616 42.1378C47.9675 42.5749 65.8722 43.1703 66.1729 37.3851C66.5999 29.1781 44.8718 21.4781 34.288 21.5065L34.1401 19.4572Z" fill="#505E86"/>
<path fill-rule="evenodd" clip-rule="evenodd" d="M18.6273 7.21253C21.3916 5.12251 26.8574 3.24092 34.8511 3.22299C52.6468 3.18302 61.4988 10.9189 61.8586 16.1651C62.3042 22.6798 54.3782 24.9227 35.4338 23.8524C15.9292 22.7505 3.56869 23.8524 3.47194 29.3993C3.36435 35.5289 27.7566 50.3205 45.5366 50.3205C57.7704 50.3205 64.581 48.0011 68.2605 46.1871C67.6599 47.9254 66.9057 49.6068 66.0069 51.2114C61.0151 52.158 54.2941 53.2234 45.4394 52.8506C30.8757 52.2368 1.04272 39.4221 1.04272 29.3997C1.04272 19.3769 24.7472 18.1117 35.1421 18.1117C45.5373 18.1117 58.2635 20.3496 57.6804 14.2193C57.0973 8.08889 45.7312 6.04518 38.8335 5.46169C31.937 4.87746 24.2624 5.94769 18.6273 7.21253Z" fill="#505E86"/>
<path fill-rule="evenodd" clip-rule="evenodd" d="M7.94094 15.7643C9.74184 13.7 10.9469 12.4176 13.397 10.5917C16.13 9.36979 23.5592 7.3399 35.4546 7.39706C53.6455 7.48372 66.8868 16.4557 66.9854 22.5002C67.1124 30.2891 57.3321 32.8965 35.5767 31.771C15.2024 30.7168 4.40228 32.0343 4.30142 37.8677C4.18973 44.3153 26.6443 57.5521 45.2077 57.1076C54.2204 56.8916 60.0104 55.703 64.0041 54.3519C62.8681 55.9219 61.5966 57.3894 60.2043 58.7374C55.9764 59.4471 51.0108 60.0026 45.5002 59.7684C30.291 59.1229 1.10754 47.3563 1.10754 36.8147C1.10754 26.273 25.0803 26.6892 35.9301 27.0489C47.8375 27.4441 62.3347 27.1677 62.3601 21.375C62.3929 13.9581 43.031 9.81282 35.0765 9.84196C22.387 9.8879 15.9174 12.1733 7.94094 15.7643Z" fill="#505E86"/>
<path fill-rule="evenodd" clip-rule="evenodd" d="M3.37093 23.0594C4.16324 21.4497 4.72992 20.3022 5.76765 18.7456C12.9705 15.2846 21.7191 13.6585 33.6141 13.7179C51.0161 13.8046 69.7549 23.83 69.7464 30.2697C69.7348 39.6384 60.0953 40.3604 35.7083 39.2771C14.5398 38.3365 6.50616 40.5943 6.40493 47.2181C6.30668 53.6656 26.6444 63.0836 45.2077 62.6387C49.8696 62.5267 53.6687 62.1554 56.8039 61.6346C54.8989 63.0565 52.8564 64.284 50.7068 65.2988C49.0336 65.3683 47.2966 65.3758 45.5002 65.2999C30.291 64.6541 3.21143 56.7064 3.21143 46.1643C3.21143 34.9641 25.2122 34.1957 36.0616 34.5551C47.9686 34.9499 64.9649 35.2006 64.9895 29.4075C65.0224 21.9906 44.3455 15.7389 33.762 15.7676C21.0717 15.802 10.6903 19.2051 3.37093 23.0594Z" fill="#505E86"/>
</svg>
