<svg width="72" height="72" viewBox="0 0 72 72" fill="none" xmlns="http://www.w3.org/2000/svg">
<g clip-path="url(#clip0_956_388)">
<path d="M0 33.804C0 21.9672 0 16.056 2.304 11.5344C4.3272 7.56 7.56 4.3272 11.5344 2.304C16.056 0 21.9672 0 33.804 0H38.2032C50.0328 0 55.944 0 60.4656 2.304C64.44 4.3272 67.6728 7.56 69.696 11.5344C72 16.056 72 21.9672 72 33.804V38.2032C72 50.0328 72 55.9512 69.696 60.4728C67.6728 64.44 64.44 67.6728 60.4656 69.696C55.944 72 50.0328 72 38.196 72H33.7968C21.9672 72 16.0488 72 11.5272 69.696C7.56 67.6728 4.3272 64.44 2.304 60.4656C0 55.944 0 50.0328 0 38.196V33.804Z" fill="url(#paint0_linear_956_388)"/>
<path d="M54.792 25.4088C52.2144 25.4088 49.8816 26.1864 47.8944 27.5256V15.336H42.3936V37.8C42.3936 44.6328 47.952 50.1336 54.756 50.1336C61.56 50.1336 67.1832 44.6688 67.1832 37.7352C67.1904 30.8088 61.6896 25.4088 54.792 25.4088ZM29.8296 39.3912L24.7968 26.28H20.9448L15.8832 39.3912L10.8144 26.28H4.81677L13.6728 49.3344H17.5248L22.8384 35.604L28.1808 49.3344H32.0328L40.86 26.28H34.8912L29.8296 39.3912ZM54.7632 44.64C51.0336 44.64 47.8944 41.6592 47.8944 37.7712C47.8944 33.8832 50.8464 30.9384 54.792 30.9384C58.7376 30.9384 61.6896 34.0128 61.6896 37.7712C61.6896 41.5368 58.5504 44.64 54.7632 44.64Z" fill="white"/>
</g>
<defs>
<linearGradient id="paint0_linear_956_388" x1="14.2555" y1="72.2407" x2="58.4375" y2="-1.39579" gradientUnits="userSpaceOnUse">
<stop stop-color="#6F01FB"/>
<stop offset="1" stop-color="#FF49D7"/>
</linearGradient>
<clipPath id="clip0_956_388">
<rect width="72" height="72" fill="white"/>
</clipPath>
</defs>
</svg>
