<svg preserveAspectRatio="none" width="100%" height="100%" overflow="visible" style="display: block;" viewBox="0 0 14.0027 12.4907" fill="none" xmlns="http://www.w3.org/2000/svg">
<g id="Group">
<path id="Vector" d="M3.37 5.08072L5.91 1.02072C6.00844 0.86025 6.14676 0.72801 6.31149 0.636881C6.47622 0.545752 6.66175 0.498843 6.85 0.500722V0.500722C6.99826 0.495371 7.14609 0.519795 7.28475 0.572549C7.42341 0.625304 7.55009 0.70532 7.6573 0.807868C7.7645 0.910415 7.85007 1.03341 7.90893 1.16959C7.96779 1.30577 7.99876 1.45237 8 1.60072V4.51072H12.39C12.5522 4.51598 12.7115 4.55552 12.8573 4.62673C13.0032 4.69795 13.1323 4.79922 13.2362 4.92391C13.3401 5.04859 13.4164 5.19385 13.4602 5.35014C13.5039 5.50644 13.5141 5.67022 13.49 5.83072L12.69 10.9907C12.6559 11.2665 12.5222 11.5203 12.3141 11.7044C12.106 11.8886 11.8379 11.9904 11.56 11.9907H5C4.68772 11.9919 4.37949 11.92 4.1 11.7807L3.38 11.4207" stroke="var(--stroke-0, #2C2C2C)" stroke-linecap="round" stroke-linejoin="round"/>
<path id="Vector_2" d="M3.37 5.08072V11.3907" stroke="var(--stroke-0, #2C2C2C)" stroke-linecap="round" stroke-linejoin="round"/>
<path id="Vector_3" d="M1 5.08072H3.37V11.3907H1C0.867392 11.3907 0.740215 11.338 0.646447 11.2443C0.552678 11.1505 0.5 11.0233 0.5 10.8907V5.58072C0.5 5.44811 0.552678 5.32094 0.646447 5.22717C0.740215 5.1334 0.867392 5.08072 1 5.08072V5.08072Z" stroke="var(--stroke-0, #2C2C2C)" stroke-linecap="round" stroke-linejoin="round"/>
</g>
</svg>
