<svg width="72" height="72" viewBox="0 0 72 72" fill="none" xmlns="http://www.w3.org/2000/svg">
<g clip-path="url(#clip0_956_383)">
<path d="M72 0H0V72H72V0Z" fill="#005BFF"/>
<path d="M20.0175 25.1033C20.0175 29.3995 16.8347 32.3637 12.4928 32.3637C8.14892 32.3637 4.96802 29.3995 4.96802 25.1033C4.96802 20.8071 8.15083 17.8429 12.4928 17.8429C16.8366 17.8429 20.0175 20.8071 20.0175 25.1033ZM49.3437 25.1033C49.3437 29.3995 46.1609 32.3637 41.819 32.3637C37.477 32.3637 34.2942 29.3995 34.2942 25.1033C34.2942 20.8071 37.477 17.8429 41.819 17.8429C46.1609 17.8429 49.3437 20.8071 49.3437 25.1033ZM64.6533 23.5132V31.8916H60.9981V24.2872C60.9981 22.0971 59.9652 21.1931 58.2036 21.1931C56.3539 21.1931 55.0208 22.2232 55.0208 25.1893V31.8916H51.3655V18.271H54.9786V20.3331H55.0648C55.9676 18.787 57.5169 17.841 59.4947 17.841C62.4594 17.8429 64.6533 19.475 64.6533 23.5132ZM21.3506 18.271V21.3651H28.5312L21.1785 28.9695V31.8916H33.3914V28.7975H25.6945L33.0471 21.1492V18.271H21.3506ZM8.79543 25.1033C8.79543 27.4654 10.2568 29.0135 12.4928 29.0135C14.7287 29.0135 16.1901 27.4674 16.1901 25.1033C16.1901 22.7392 14.7287 21.1931 12.4928 21.1931C10.2568 21.1931 8.79543 22.7392 8.79543 25.1033ZM38.1217 25.1033C38.1217 27.4654 39.583 29.0135 41.819 29.0135C44.055 29.0135 45.5163 27.4674 45.5163 25.1033C45.5163 22.7392 44.055 21.1931 41.819 21.1931C39.583 21.1931 38.1217 22.7392 38.1217 25.1033Z" fill="white"/>
<path d="M51.2676 40.3948V53.5834H47.7281V48.2576H42.0647V53.5834H38.5252V40.3948H42.0647V45.1783H47.7281V40.3948H51.2676ZM31.9893 40.3948V42.3082H31.9066C31.2824 40.9777 29.6155 39.9784 27.4931 39.9784C24.0372 39.9784 21.205 42.4748 21.205 46.9678C21.205 51.5034 23.9536 54.0404 27.4931 54.0404C29.6581 54.0404 31.1989 53.0412 31.9066 51.7939H31.9893V53.5834H35.5288V40.3948H31.9893ZM13.2541 40.2708C11.0891 40.2708 9.4241 41.2701 8.54992 42.8504H8.46653C8.59063 39.9377 9.5908 38.6905 13.0041 38.3574L18.2918 37.8578V34.488L12.4207 34.9451C6.67558 35.4021 4.96802 39.3141 4.96802 45.554C4.96802 51.087 8.17394 54.0404 12.3373 54.0404C16.46 54.0404 19.6234 51.087 19.6234 46.9678C19.6234 42.8504 16.7508 40.2708 13.2541 40.2708ZM28.4097 50.8372C26.2849 50.8372 24.9128 49.2569 24.9128 47.0511C24.9128 44.8045 26.2873 43.1817 28.4097 43.1817C30.5321 43.1817 31.9893 44.762 31.9893 47.0085C31.9893 49.2143 30.5321 50.8372 28.4097 50.8372ZM12.2947 50.8372C10.2557 50.8372 8.67213 49.2976 8.67213 47.0104C8.67213 44.6805 10.2538 43.3075 12.2947 43.3075C14.3358 43.3075 15.9174 44.6805 15.9174 47.0104C15.9174 49.2976 14.3358 50.8372 12.2947 50.8372ZM62.5929 53.5834L57.8059 47.2601V53.5834H54.2665V40.3948H57.8059V45.8445L62.2194 40.3948H66.592L61.1783 46.3849L67.09 53.5815H62.5929V53.5834Z" fill="white"/>
</g>
<defs>
<clipPath id="clip0_956_383">
<rect width="72" height="72" fill="white"/>
</clipPath>
</defs>
</svg>
