<svg width="22" height="22" viewBox="0 0 22 22" fill="none" xmlns="http://www.w3.org/2000/svg">
<g clip-path="url(#clip0_822_2106)">
<path d="M15.84 13.6243C16.2205 14.068 16.5063 14.5849 16.6798 15.143C16.8533 15.7012 16.911 16.289 16.8492 16.8702C16.7873 17.4515 16.6074 18.014 16.3204 18.5232C16.0333 19.0324 15.6453 19.4776 15.18 19.8314C13.9464 20.6734 12.5006 21.1509 11.0082 21.2093C9.51572 21.2676 8.03703 20.9045 6.74143 20.1614L5.32715 19.36" stroke="white" stroke-width="1.57143" stroke-linecap="round" stroke-linejoin="round"/>
<path d="M15.714 2.0743C12.5711 0.518582 6.64686 -0.408561 5.31114 3.99144C5.11863 4.63627 5.09707 5.32008 5.24859 5.97576C5.40011 6.63144 5.71951 7.23645 6.17543 7.73144C7.42799 8.70988 8.80115 9.52321 10.2611 10.1514" stroke="white" stroke-width="1.57143" stroke-linecap="round" stroke-linejoin="round"/>
<path d="M0.785645 10.2144H21.2142" stroke="white" stroke-width="1.57143" stroke-linecap="round" stroke-linejoin="round"/>
</g>
<defs>
<clipPath id="clip0_822_2106">
<rect width="22" height="22" fill="white"/>
</clipPath>
</defs>
</svg>
