<svg width="76" height="74" viewBox="0 0 76 74" fill="none" xmlns="http://www.w3.org/2000/svg">
<g clip-path="url(#clip0_954_349)">
<path d="M1.20001 37.4C1.20001 57.6 17.6 74 37.9 74C38.4 74 38.9 74 39.4 74V60.1H37.9C25.3 60.1 15.2 49.9 15.2 37.4C15.2 24.9 25.4 14.7 37.9 14.7H39.4V0.700012C38.9 0.700012 38.4 0.700012 37.9 0.700012C17.6 0.700012 1.20001 17.1 1.20001 37.4Z" fill="#DA5155"/>
<path d="M45.2 1.39999V20.5H37.9C28.5 20.5 21 28 21 37.4C21 46.7 28.6 54.3 37.9 54.3H45.2V73.4C61.9 70 74.5 55.2 74.5 37.5C74.5 19.6 61.9 4.79999 45.2 1.39999Z" fill="#213A8B"/>
</g>
<defs>
<clipPath id="clip0_954_349">
<rect width="76" height="74" fill="white"/>
</clipPath>
</defs>
</svg>
