<svg preserveAspectRatio="none" width="100%" height="100%" overflow="visible" style="display: block;" viewBox="0 0 14.0027 12.4907" fill="none" xmlns="http://www.w3.org/2000/svg">
<g id="Group">
<path id="Vector" d="M3.37 7.41002L5.91 11.47C6.00844 11.6305 6.14676 11.7627 6.31149 11.8539C6.47622 11.945 6.66175 11.9919 6.85 11.99C6.99826 11.9954 7.14609 11.9709 7.28475 11.9182C7.42341 11.8654 7.55009 11.7854 7.6573 11.6829C7.7645 11.5803 7.85007 11.4573 7.90893 11.3211C7.96779 11.185 7.99876 11.0384 8 10.89V7.98002H12.39C12.5522 7.97476 12.7115 7.93522 12.8573 7.864C13.0032 7.79279 13.1323 7.69151 13.2362 7.56683C13.3401 7.44215 13.4164 7.29689 13.4602 7.14059C13.5039 6.9843 13.5141 6.82052 13.49 6.66002L12.69 1.50002C12.6559 1.22425 12.5222 0.970449 12.3141 0.786303C12.106 0.602157 11.8379 0.50035 11.56 0.500015H5C4.68772 0.498792 4.37949 0.570712 4.1 0.710015L3.38 1.07002" stroke="var(--stroke-0, #2C2C2C)" stroke-linecap="round" stroke-linejoin="round"/>
<path id="Vector_2" d="M3.37 7.41001V1.10002" stroke="var(--stroke-0, #2C2C2C)" stroke-linecap="round" stroke-linejoin="round"/>
<path id="Vector_3" d="M1 1.10002H3.37V7.41001H1C0.867392 7.41001 0.740215 7.35734 0.646447 7.26357C0.552678 7.1698 0.5 7.04262 0.5 6.91002V1.60002C0.5 1.46741 0.552678 1.34023 0.646447 1.24646C0.740215 1.15269 0.867392 1.10002 1 1.10002V1.10002Z" stroke="var(--stroke-0, #2C2C2C)" stroke-linecap="round" stroke-linejoin="round"/>
</g>
</svg>
