<svg width="62" height="61" viewBox="0 0 62 61" fill="none" xmlns="http://www.w3.org/2000/svg">
<g clip-path="url(#clip0_954_369)">
<path d="M31 0C47.586 0 61.0346 13.4486 61.0346 30.0346C61.0346 46.6207 47.586 60.0693 31 60.0693C14.4139 60.0693 0.965332 46.6207 0.965332 30.0346C0.965332 13.4486 14.4139 0 31 0Z" fill="#FC3F1D"/>
<path d="M35.1694 47.3031H41.4443V11.2682H32.3149C23.1356 11.2598 18.3088 15.9785 18.3088 22.9275C18.3088 28.4784 20.9552 31.7407 25.6739 35.1111L17.4849 47.2947H24.2757L33.3968 33.6547L30.2344 31.5326C26.3979 28.9444 24.5337 26.9221 24.5337 22.5613C24.5337 18.7248 27.2301 16.1283 32.3649 16.1283H35.1611L35.1694 47.3031Z" fill="white"/>
</g>
<defs>
<clipPath id="clip0_954_369">
<rect width="62" height="60.0859" fill="white"/>
</clipPath>
</defs>
</svg>
