<svg width="21" height="21" viewBox="0 0 21 21" fill="none" xmlns="http://www.w3.org/2000/svg">
<g clip-path="url(#clip0_817_1554)">
<path d="M19.32 18.585C19.3436 18.7954 19.3224 19.0085 19.2578 19.2102C19.1932 19.4118 19.0866 19.5975 18.945 19.755C18.8031 19.9123 18.6295 20.0377 18.4355 20.123C18.2416 20.2083 18.0319 20.2516 17.82 20.25H3.18002C2.96818 20.2516 2.7584 20.2083 2.56449 20.123C2.37058 20.0377 2.19695 19.9123 2.05502 19.755C1.91346 19.5975 1.80686 19.4118 1.74223 19.2102C1.6776 19.0085 1.65639 18.7954 1.68002 18.585L3.00002 6.75H18L19.32 18.585Z" stroke="#2C2C2C" stroke-width="1.5" stroke-linecap="round" stroke-linejoin="round"/>
<path d="M6.75 6.75V4.5C6.75 3.50544 7.14509 2.55161 7.84835 1.84835C8.55161 1.14509 9.50544 0.75 10.5 0.75C11.4946 0.75 12.4484 1.14509 13.1517 1.84835C13.8549 2.55161 14.25 3.50544 14.25 4.5V6.75" stroke="#2C2C2C" stroke-width="1.5" stroke-linecap="round" stroke-linejoin="round"/>
</g>
<defs>
<clipPath id="clip0_817_1554">
<rect width="21" height="21" fill="white"/>
</clipPath>
</defs>
</svg>
